<svg width="21" height="21" viewBox="0 0 21 21" fill="none" xmlns="http://www.w3.org/2000/svg">
<path d="M18.4137 5.19828L11.3017 1.125C11.0563 0.98915 10.7804 0.917877 10.4999 0.917877C10.2195 0.917877 9.9436 0.98915 9.69822 1.125L2.58615 5.19828C2.3378 5.34014 2.13154 5.54535 1.98842 5.79297C1.8453 6.0406 1.77044 6.32176 1.7715 6.60776V14.25C1.79008 14.516 1.8742 14.7733 2.01634 14.9989C2.15848 15.2245 2.35423 15.4115 2.58615 15.5431L9.69822 19.5647C9.9436 19.7005 10.2195 19.7718 10.4999 19.7718C10.7804 19.7718 11.0563 19.7005 11.3017 19.5647L18.4137 15.5431C18.6457 15.4115 18.8414 15.2245 18.9835 14.9989C19.1257 14.7733 19.2098 14.516 19.2284 14.25V6.55604C19.2205 6.27885 19.1414 6.00836 18.9987 5.77058C18.856 5.53279 18.6546 5.33571 18.4137 5.19828ZM9.69822 17.7543L6.94391 16.2026V9.34914L9.69822 10.8491V17.7543ZM10.4999 9.45259L7.81029 7.97845L14.0301 4.52587L16.7327 6.05173L10.4999 9.45259ZM10.4999 2.53449L12.3879 3.59483L6.12925 7.07328L4.26718 6.05173L10.4999 2.53449ZM3.38787 7.40949L5.32753 8.46983V15.2845L3.38787 14.25V7.40949ZM11.3017 17.7543V10.8491L17.612 7.40949V14.25L11.3017 17.7543Z" fill="white"/>
</svg>
