<svg width="20" height="20" viewBox="0 0 20 20" fill="none" xmlns="http://www.w3.org/2000/svg">
<path d="M16.7017 13.1118H5.63916L5.33916 11.5493H16.7517C17.1114 11.5503 17.4603 11.4261 17.7386 11.198C18.0168 10.97 18.207 10.6522 18.2767 10.2993L19.3267 5.29926C19.375 5.07185 19.372 4.83651 19.3179 4.61041C19.2637 4.3843 19.1598 4.17313 19.0137 3.99229C18.8676 3.81144 18.683 3.66548 18.4733 3.56505C18.2636 3.46462 18.0342 3.41225 17.8017 3.41176H3.76416L3.48916 1.86176H0.63916V3.42426H2.20166L4.07666 13.2243C3.53209 13.3529 3.04644 13.6606 2.69743 14.098C2.34842 14.5354 2.15625 15.0772 2.15166 15.6368C2.18093 16.3254 2.48113 16.9745 2.98685 17.4428C3.49257 17.911 4.16285 18.1605 4.85166 18.1368C5.53498 18.1537 6.19748 17.9008 6.69578 17.433C7.19408 16.9651 7.48808 16.3198 7.51416 15.6368C7.51185 15.3058 7.44387 14.9787 7.31416 14.6743H14.1767C14.047 14.9787 13.979 15.3058 13.9767 15.6368C14.0059 16.3254 14.3061 16.9745 14.8119 17.4428C15.3176 17.911 15.9878 18.1605 16.6767 18.1368C17.3397 18.1368 17.9756 17.8734 18.4444 17.4045C18.9133 16.9357 19.1767 16.2998 19.1767 15.6368C19.1767 14.9737 18.9133 14.3378 18.4444 13.869C17.9756 13.4001 17.3397 13.1368 16.6767 13.1368L16.7017 13.1118ZM17.8017 5.01176L16.7517 10.0118H5.01416L4.08916 5.01176H17.8017ZM4.85166 16.5993C4.58209 16.6068 4.31974 16.5115 4.1178 16.3328C3.91586 16.1541 3.78944 15.9052 3.76416 15.6368C3.78961 15.3592 3.92312 15.1027 4.13591 14.9227C4.34869 14.7426 4.6237 14.6534 4.90166 14.6743C5.17829 14.6535 5.45188 14.7431 5.66267 14.9235C5.87346 15.1038 6.00432 15.3602 6.02666 15.6368C6.01589 15.7783 5.97652 15.9162 5.91093 16.0422C5.84534 16.1681 5.75489 16.2794 5.64506 16.3694C5.53522 16.4593 5.40828 16.5261 5.27192 16.5656C5.13555 16.6051 4.99258 16.6166 4.85166 16.5993ZM16.7017 16.5993C16.4237 16.6201 16.1487 16.5309 15.9359 16.3508C15.7231 16.1708 15.5896 15.9143 15.5642 15.6368C15.6126 15.372 15.7523 15.1326 15.959 14.9603C16.1657 14.788 16.4263 14.6936 16.6954 14.6936C16.9645 14.6936 17.2251 14.788 17.4318 14.9603C17.6385 15.1326 17.7783 15.372 17.8267 15.6368C17.8012 15.912 17.6695 16.1665 17.4594 16.3462C17.2494 16.5259 16.9775 16.6167 16.7017 16.5993Z" fill="#2C3357"/>
</svg>
