<svg width="16" height="16" viewBox="0 0 16 16" fill="none" xmlns="http://www.w3.org/2000/svg">
<path d="M8.6 11.4L8.6 12.6L2.5 12.6L2.5 13.8L8.7 13.8L8.7 15.1C8.6 15.6 9 16 9.5 16L11.3 16C11.8 16 12.2 15.6 12.2 15.1L12.2 13.9L13.4 13.9L13.4 12.7L12.2 12.7L12.2 11.5C12.2 11 11.8 10.6 11.3 10.6L9.5 10.6C9 10.5 8.6 10.9 8.6 11.4ZM11.1 11.7L11.1 14.8L9.8 14.8L9.8 11.8L11.1 11.8L11.1 11.7Z" fill="white"/>
<path d="M6.5 5.2L4.6 5.2C4.1 5.2 3.7 5.6 3.7 6.1L3.7 7.4L2.5 7.4L2.5 8.6L3.7 8.6L3.7 9.8C3.7 10.3 4.1 10.7 4.6 10.7L6.4 10.7C6.9 10.7 7.3 10.3 7.3 9.8L7.3 8.6L13.5 8.6L13.5 7.4L7.4 7.4L7.4 6.2C7.4 5.6 7 5.2 6.5 5.2ZM6.2 6.5L6.2 9.5L4.9 9.5L4.9 6.5L6.2 6.5Z" fill="white"/>
<path d="M8 0.899999L8 2.1L2.5 2.1L2.5 3.3L8 3.3L8 4.5C8 5 8.4 5.4 8.9 5.4L10.7 5.4C11.2 5.4 11.6 5 11.6 4.5L11.6 3.3L13.4 3.3L13.4 2.1L11.6 2.1L11.6 0.899999C11.6 0.399999 11.2 -3.80289e-07 10.7 -3.58433e-07L8.9 -2.79753e-07C8.4 -2.57897e-07 8 0.399999 8 0.899999ZM10.5 1.2L10.5 4.2L9.2 4.2L9.2 1.2L10.5 1.2Z" fill="white"/>
</svg>
