<svg width="30" height="30" viewBox="0 0 30 30" fill="none" xmlns="http://www.w3.org/2000/svg">
<path d="M11.25 3.75013C12.3694 3.75013 13.3763 4.24138 14.0625 5.0195C14.6777 4.32192 15.5301 3.87782 16.4543 3.77345C17.3785 3.66908 18.3085 3.91188 19.0637 4.45471C19.819 4.99753 20.3456 5.80165 20.5412 6.71092C20.7369 7.62018 20.5876 8.56971 20.1225 9.37513H22.5C22.9973 9.37513 23.4742 9.57267 23.8258 9.9243C24.1775 10.2759 24.375 10.7528 24.375 11.2501V15.0001C24.375 15.4974 24.1775 15.9743 23.8258 16.326C23.4742 16.6776 22.9973 16.8751 22.5 16.8751V22.5001C22.5 23.4947 22.1049 24.4485 21.4016 25.1518C20.6984 25.855 19.7446 26.2501 18.75 26.2501H9.375C8.38044 26.2501 7.42661 25.855 6.72335 25.1518C6.02009 24.4485 5.625 23.4947 5.625 22.5001V16.8751C5.12772 16.8751 4.65081 16.6776 4.29917 16.326C3.94754 15.9743 3.75 15.4974 3.75 15.0001V11.2501C3.75 10.7528 3.94754 10.2759 4.29917 9.9243C4.65081 9.57267 5.12772 9.37513 5.625 9.37513H8.0025C7.67337 8.80506 7.5001 8.15841 7.5001 7.50015C7.50009 6.8419 7.67336 6.19524 8.00248 5.62517C8.3316 5.0551 8.80497 4.58171 9.37503 4.25257C9.94509 3.92343 10.5917 3.75014 11.25 3.75013ZM9.375 7.50013C9.375 7.99741 9.57254 8.47432 9.92418 8.82595C10.2758 9.17758 10.7527 9.37513 11.25 9.37513H13.125V7.50013C13.125 7.00285 12.9275 6.52593 12.5758 6.1743C12.2242 5.82267 11.7473 5.62513 11.25 5.62513C10.7527 5.62513 10.2758 5.82267 9.92418 6.1743C9.57254 6.52593 9.375 7.00285 9.375 7.50013ZM15 11.2501V15.0001H22.5V11.2501H15ZM13.125 11.2501H5.625V15.0001H13.125V11.2501ZM7.5 16.8751V22.5001C7.5 22.9974 7.69754 23.4743 8.04918 23.826C8.40081 24.1776 8.87772 24.3751 9.375 24.3751H13.125V16.8751H7.5ZM15 24.3751H18.75C19.2473 24.3751 19.7242 24.1776 20.0758 23.826C20.4275 23.4743 20.625 22.9974 20.625 22.5001V16.8751H15V24.3751ZM18.75 7.50013C18.75 7.00285 18.5525 6.52593 18.2008 6.1743C17.8492 5.82267 17.3723 5.62513 16.875 5.62513C16.3777 5.62513 15.9008 5.82267 15.5492 6.1743C15.1975 6.52593 15 7.00285 15 7.50013V9.37513H16.875C17.3723 9.37513 17.8492 9.17758 18.2008 8.82595C18.5525 8.47432 18.75 7.99741 18.75 7.50013Z" fill="#FF0080"/>
</svg>
