<svg width="21" height="20" viewBox="0 0 21 20" fill="none" xmlns="http://www.w3.org/2000/svg">
  <path d="M11.7481 17.8058C11.3867 18.1442 10.9037 18.3333 10.4009 18.3333C9.89816 18.3333 9.41516 18.1442 9.05374 17.8058C5.74418 14.6883 1.30896 11.2058 3.47189 6.14972C4.64135 3.41597 7.44861 1.66667 10.4009 1.66667C13.3532 1.66667 16.1605 3.41597 17.33 6.14972C19.4902 11.1994 15.0658 14.6991 11.7481 17.8058Z" stroke="#ffffff" stroke-width="2"/>
  <path d="M13.3167 9.16667C13.3167 10.7775 12.0108 12.0833 10.4 12.0833C8.78916 12.0833 7.48332 10.7775 7.48332 9.16667C7.48332 7.55583 8.78916 6.25 10.4 6.25C12.0108 6.25 13.3167 7.55583 13.3167 9.16667Z" stroke="#ffffff" stroke-width="2"/>
  </svg>
