<svg width="15" height="15" viewBox="0 0 15 15" fill="none" xmlns="http://www.w3.org/2000/svg">
<path d="M12.4362 9.75792H4.44015L4.2233 8.62854H12.4723C12.7324 8.62926 12.9846 8.53951 13.1857 8.37466C13.3868 8.20982 13.5243 7.98015 13.5746 7.72503L14.3336 4.11099C14.3685 3.94662 14.3664 3.77652 14.3272 3.61309C14.2881 3.44966 14.213 3.29702 14.1074 3.16631C14.0018 3.03559 13.8683 2.93009 13.7167 2.8575C13.5652 2.78491 13.3993 2.74705 13.2313 2.74669H3.08488L2.88611 1.62634H0.826111V2.75573H1.9555L3.31076 9.83924C2.91714 9.93225 2.56611 10.1546 2.31384 10.4708C2.06158 10.7869 1.92267 11.1786 1.91936 11.583C1.94051 12.0807 2.1575 12.5499 2.52304 12.8884C2.88858 13.2269 3.37306 13.4072 3.87094 13.39C4.36484 13.4023 4.84371 13.2195 5.20388 12.8813C5.56405 12.5431 5.77656 12.0767 5.79541 11.583C5.79374 11.3438 5.7446 11.1074 5.65085 10.8873H10.6111C10.5174 11.1074 10.4682 11.3438 10.4665 11.583C10.4877 12.0807 10.7047 12.5499 11.0702 12.8884C11.4358 13.2269 11.9202 13.4072 12.4181 13.39C12.8974 13.39 13.357 13.1996 13.6959 12.8608C14.0348 12.5219 14.2251 12.0623 14.2251 11.583C14.2251 11.1038 14.0348 10.6441 13.6959 10.3053C13.357 9.96638 12.8974 9.77599 12.4181 9.77599L12.4362 9.75792ZM13.2313 3.90319L12.4723 7.51722H3.98839L3.3198 3.90319H13.2313ZM3.87094 12.2787C3.67609 12.2842 3.48646 12.2153 3.3405 12.0861C3.19453 11.9569 3.10315 11.7771 3.08488 11.583C3.10328 11.3824 3.19978 11.197 3.35358 11.0669C3.50739 10.9367 3.70617 10.8722 3.90708 10.8873C4.10703 10.8723 4.30478 10.9371 4.45714 11.0674C4.6095 11.1978 4.70408 11.3832 4.72023 11.583C4.71245 11.6853 4.68399 11.785 4.63658 11.876C4.58917 11.9671 4.5238 12.0475 4.44441 12.1125C4.36502 12.1776 4.27327 12.2258 4.1747 12.2544C4.07613 12.2829 3.97279 12.2912 3.87094 12.2787ZM12.4362 12.2787C12.2353 12.2938 12.0365 12.2293 11.8827 12.0991C11.7289 11.969 11.6324 11.7836 11.614 11.583C11.649 11.3917 11.75 11.2186 11.8994 11.0941C12.0488 10.9695 12.2372 10.9013 12.4317 10.9013C12.6262 10.9013 12.8146 10.9695 12.964 11.0941C13.1134 11.2186 13.2144 11.3917 13.2494 11.583C13.231 11.782 13.1357 11.9659 12.9839 12.0958C12.8321 12.2257 12.6356 12.2913 12.4362 12.2787Z" fill="white"/>
</svg>
