<svg width="24" height="24" viewBox="0 0 24 24" fill="none" xmlns="http://www.w3.org/2000/svg">
<path d="M17.25 19.4936V3.37512C17.2491 3.07702 17.1303 2.79137 16.9195 2.58058C16.7087 2.36979 16.4231 2.25099 16.125 2.25012H3.375C3.0769 2.25099 2.79125 2.36979 2.58046 2.58058C2.36967 2.79137 2.25087 3.07702 2.25 3.37512V19.8751C2.25148 20.3719 2.4495 20.848 2.80081 21.1993C3.15212 21.5506 3.62818 21.7486 4.125 21.7501H19.5" stroke="#FF0080" stroke-width="1.5" stroke-linejoin="round"/>
<path d="M19.5 21.7501C18.9033 21.7501 18.331 21.5131 17.909 21.0911C17.4871 20.6692 17.25 20.0969 17.25 19.5001V6.00012H20.625C20.9234 6.00012 21.2095 6.11865 21.4205 6.32963C21.6315 6.54061 21.75 6.82675 21.75 7.12512V19.5001C21.75 20.0969 21.5129 20.6692 21.091 21.0911C20.669 21.5131 20.0967 21.7501 19.5 21.7501Z" stroke="#FF0080" stroke-width="1.5" stroke-linejoin="round"/>
<path d="M5.25 18.0001H14.25M11.25 6.00012H14.25H11.25ZM11.25 9.00012H14.25H11.25ZM5.25 12.0001H14.25H5.25ZM5.25 15.0001H14.25H5.25Z" stroke="#FF0080" stroke-width="1.5" stroke-linecap="round" stroke-linejoin="round"/>
<path d="M8.25 9.75012H5.25C5.05109 9.75012 4.86032 9.6711 4.71967 9.53045C4.57902 9.3898 4.5 9.19903 4.5 9.00012V6.00012C4.5 5.80121 4.57902 5.61044 4.71967 5.46979C4.86032 5.32914 5.05109 5.25012 5.25 5.25012H8.25C8.44891 5.25012 8.63968 5.32914 8.78033 5.46979C8.92098 5.61044 9 5.80121 9 6.00012V9.00012C9 9.19903 8.92098 9.3898 8.78033 9.53045C8.63968 9.6711 8.44891 9.75012 8.25 9.75012Z" fill="#FF0080"/>
</svg>
