<svg width="24" height="32" viewBox="0 0 24 32" fill="none" xmlns="http://www.w3.org/2000/svg">
<path d="M22.218 14.1174C21.0096 12.7608 19.3345 12.0138 17.5012 12.0138C17.441 12.0138 17.381 12.0148 17.3213 12.0165V7.68584C17.3213 7.13486 16.8746 6.6881 16.3235 6.6881H15.3258V1.69952C15.3258 1.14854 14.8791 0.701782 14.328 0.701782H9.67202C9.12104 0.701782 8.67428 1.14848 8.67428 1.69952V6.6881H7.67654C7.12556 6.6881 6.6788 7.1348 6.6788 7.68584V12.0165C6.61905 12.0149 6.55911 12.0138 6.49887 12.0138C4.66552 12.0138 2.99041 12.7609 1.78208 14.1174C0.632909 15.4076 0 17.1332 0 18.9766C0 22.8714 2.13693 25.9895 3.41075 27.5014C5.35418 29.8081 7.71826 31.2985 9.43364 31.2985H14.5664C16.2821 31.2985 18.6464 29.8075 20.5898 27.5002C21.8633 25.9881 24 22.87 24 18.9766C23.9999 17.1332 23.3671 15.4076 22.218 14.1174ZM10.6698 2.6972H13.3304V6.6881H10.6698V2.6972ZM8.67434 8.68352H15.3258V12.4191C14.3545 12.8004 13.4786 13.4469 12.7347 14.3413C12.5559 14.556 12.2882 14.6792 12 14.6792C11.7118 14.6792 11.444 14.556 11.2654 14.3413C10.5216 13.4468 9.64567 12.8004 8.67428 12.419V8.68352H8.67434ZM19.0637 26.2147C17.356 28.2423 15.5086 29.3031 14.5665 29.3031H9.4337C8.4916 29.3031 6.6445 28.2426 4.937 26.2158C3.55758 24.5784 2.61291 22.7125 2.21222 20.8898C5.23741 19.6757 8.60556 19.7864 11.5655 21.2213C13.3873 22.1045 15.4203 22.5748 17.445 22.5813C17.4592 22.5813 17.4733 22.5813 17.4875 22.5813C18.8379 22.5813 20.1926 22.3742 21.4866 21.9766C20.9957 23.4427 20.1692 24.902 19.0637 26.2147ZM21.9737 19.6814C18.9016 20.9751 15.4556 20.8897 12.4359 19.4258C10.6122 18.5416 8.57693 18.0713 6.5502 18.0658C6.53795 18.0658 6.526 18.0658 6.51375 18.0658C4.98254 18.0658 3.44577 18.3315 1.99841 18.8402C2.05978 16.0768 3.97315 14.0093 6.49899 14.0093C7.75638 14.0093 8.84388 14.5504 9.7313 15.6173C10.2902 16.2894 11.1171 16.6747 12.0001 16.6747C12.8829 16.6747 13.7099 16.2893 14.2688 15.6173C15.1562 14.5504 16.2437 14.0093 17.5011 14.0093C20.0685 14.0093 22.0045 16.1447 22.0045 18.9766C22.0045 19.2093 21.9939 19.4444 21.9737 19.6814Z" fill="#FF0080"/>
</svg>
