<svg width="20" height="20" viewBox="0 0 20 20" fill="none" xmlns="http://www.w3.org/2000/svg">
<path fill-rule="evenodd" clip-rule="evenodd" d="M18.4375 10C18.4375 12.5654 17.0779 14.8981 14.9437 16.3335C14.3166 14.2988 12.305 12.8594 10.0024 12.8594C7.6987 12.8594 5.68635 14.3 5.06027 16.3361C2.92374 14.901 1.5625 12.567 1.5625 10C1.5625 5.77874 5.24357 2.1875 10 2.1875C14.7564 2.1875 18.4375 5.77874 18.4375 10ZM10.0024 14.3906C11.82 14.3906 13.2528 15.5901 13.5551 17.0902C12.4818 17.5525 11.2798 17.8125 10 17.8125C8.72191 17.8125 7.52146 17.5532 6.44922 17.092C6.75075 15.5911 8.18399 14.3906 10.0024 14.3906ZM20 10C20 15.1777 15.5228 19.375 10 19.375C4.47715 19.375 0 15.1777 0 10C0 4.82233 4.47715 0.625 10 0.625C15.5228 0.625 20 4.82233 20 10ZM10.0625 9.8125C9.46561 9.8125 8.8125 9.26543 8.8125 8.375C8.8125 7.48457 9.46561 6.9375 10.0625 6.9375C10.6594 6.9375 11.3125 7.48457 11.3125 8.375C11.3125 9.26543 10.6594 9.8125 10.0625 9.8125ZM10.0625 11.375C8.5092 11.375 7.25 10.0319 7.25 8.375C7.25 6.71815 8.5092 5.375 10.0625 5.375C11.6158 5.375 12.875 6.71815 12.875 8.375C12.875 10.0319 11.6158 11.375 10.0625 11.375Z" fill="#FF0080"/>
</svg>
