<svg width="20" height="20" viewBox="0 0 24 24" fill="none" xmlns="http://www.w3.org/2000/svg">
<path fill-rule="evenodd" clip-rule="evenodd" d="M22.125 12C22.125 15.0785 20.4935 17.8778 17.9324 19.6002C17.18 17.1585 14.7661 15.4313 12.0028 15.4313C9.23844 15.4313 6.82363 17.16 6.07233 19.6033C3.50849 17.8812 1.875 15.0804 1.875 12C1.875 6.93448 6.29229 2.625 12 2.625C17.7077 2.625 22.125 6.93448 22.125 12ZM12.0028 17.2688C14.184 17.2688 15.9033 18.7081 16.2662 20.5082C14.9782 21.063 13.5358 21.375 12 21.375C10.4663 21.375 9.02576 21.0638 7.73906 20.5105C8.1009 18.7093 9.82079 17.2688 12.0028 17.2688ZM24 12C24 18.2132 18.6274 23.25 12 23.25C5.37258 23.25 0 18.2132 0 12C0 5.7868 5.37258 0.75 12 0.75C18.6274 0.75 24 5.7868 24 12ZM12.075 11.775C11.3587 11.775 10.575 11.1185 10.575 10.05C10.575 8.98148 11.3587 8.325 12.075 8.325C12.7913 8.325 13.575 8.98148 13.575 10.05C13.575 11.1185 12.7913 11.775 12.075 11.775ZM12.075 13.65C10.211 13.65 8.7 12.0382 8.7 10.05C8.7 8.06177 10.211 6.45 12.075 6.45C13.939 6.45 15.45 8.06177 15.45 10.05C15.45 12.0382 13.939 13.65 12.075 13.65Z" fill="black"/>
</svg>
