<svg width="21" height="21" viewBox="0 0 21 21" fill="none" xmlns="http://www.w3.org/2000/svg">
<path fill-rule="evenodd" clip-rule="evenodd" d="M19.2284 10.3448C19.2284 12.9987 17.822 15.4119 15.6141 16.8967C14.9655 14.7918 12.8845 13.3028 10.5024 13.3028C8.11931 13.3028 6.03758 14.7931 5.38991 16.8994C3.17971 15.4148 1.77153 13.0003 1.77153 10.3448C1.77153 5.978 5.57954 2.26292 10.5 2.26292C15.4204 2.26292 19.2284 5.978 19.2284 10.3448ZM10.5024 14.8869C12.3827 14.8869 13.8649 16.1276 14.1777 17.6795C13.0673 18.1577 11.8239 18.4267 10.5 18.4267C9.17781 18.4267 7.93597 18.1585 6.82675 17.6814C7.13868 16.1287 8.62134 14.8869 10.5024 14.8869ZM20.8448 10.3448C20.8448 15.701 16.2133 20.0431 10.5 20.0431C4.78669 20.0431 0.155151 15.701 0.155151 10.3448C0.155151 4.98861 4.78669 0.646545 10.5 0.646545C16.2133 0.646545 20.8448 4.98861 20.8448 10.3448ZM10.5646 10.1509C9.94711 10.1509 9.27149 9.58494 9.27149 8.6638C9.27149 7.74267 9.94711 7.17673 10.5646 7.17673C11.1821 7.17673 11.8577 7.74267 11.8577 8.6638C11.8577 9.58494 11.1821 10.1509 10.5646 10.1509ZM10.5646 11.7673C8.95773 11.7673 7.65511 10.3778 7.65511 8.6638C7.65511 6.94982 8.95773 5.56036 10.5646 5.56036C12.1715 5.56036 13.4741 6.94982 13.4741 8.6638C13.4741 10.3778 12.1715 11.7673 10.5646 11.7673Z" fill="white"/>
</svg>
