<svg width="17" height="16" viewBox="0 0 17 16" fill="none" xmlns="http://www.w3.org/2000/svg">
<path d="M13.9849 2.53411L13.9677 2.52954L13.0934 2.24608C12.8272 2.15772 12.5853 2.00851 12.3869 1.81029C12.1885 1.61208 12.039 1.37033 11.9504 1.10424L11.6669 0.231002C11.6433 0.163488 11.5992 0.104995 11.5408 0.0636119C11.4825 0.0222287 11.4127 0 11.3412 0C11.2696 0 11.1999 0.0222287 11.1415 0.0636119C11.0831 0.104995 11.0391 0.163488 11.0154 0.231002L10.7297 1.10424C10.6432 1.36834 10.4967 1.60884 10.3018 1.80693C10.1069 2.00501 9.86879 2.15532 9.60612 2.24608L8.92719 2.46667H8.92377L8.72717 2.52954C8.65967 2.55337 8.60131 2.59773 8.5603 2.65641C8.52904 2.69983 8.50838 2.74996 8.49996 2.80279C8.49154 2.85563 8.4956 2.9097 8.51182 2.96068C8.52804 3.01166 8.55596 3.05815 8.59335 3.09641C8.63075 3.13467 8.67657 3.16365 8.72717 3.18103L9.60384 3.46564L9.69871 3.49993L9.70785 3.50221C9.93587 3.59414 10.1427 3.73169 10.3157 3.90642C10.4886 4.08115 10.6241 4.28937 10.7137 4.51832L10.748 4.60976L11.0314 5.48414C11.0552 5.55182 11.0994 5.61041 11.158 5.65179C11.2166 5.69317 11.2866 5.71527 11.3583 5.71502H11.3629C11.4336 5.71409 11.5024 5.69144 11.5598 5.65015C11.6173 5.60885 11.6606 5.5509 11.6841 5.48414L11.9687 4.6109C12.057 4.34485 12.2062 4.1031 12.4045 3.90487C12.6027 3.70664 12.8445 3.55742 13.1105 3.46907L13.9849 3.18561C14.0519 3.16142 14.1098 3.11717 14.1507 3.05887C14.1917 3.00058 14.2136 2.93109 14.2136 2.85986C14.2136 2.78863 14.1917 2.71913 14.1507 2.66084C14.1098 2.60255 14.0519 2.55829 13.9849 2.53411ZM15.6033 6.36881L16.3028 6.59626L16.3177 6.59969C16.3711 6.61906 16.4173 6.65441 16.4499 6.70093C16.4825 6.74746 16.5 6.8029 16.5 6.85972C16.5 6.91653 16.4825 6.97197 16.4499 7.0185C16.4173 7.06502 16.3711 7.10037 16.3177 7.11974L15.6171 7.34834C15.4045 7.41901 15.2112 7.53823 15.0527 7.69654C14.8942 7.85486 14.7748 8.04793 14.7038 8.26044L14.4764 8.95994C14.4568 9.01497 14.4202 9.06233 14.3719 9.09521C14.3236 9.12808 14.2661 9.14475 14.2078 9.14282C14.1514 9.14262 14.0965 9.12491 14.0506 9.09215C14.0048 9.05939 13.9702 9.01319 13.9517 8.95994L13.7231 8.26044C13.6522 8.04747 13.5327 7.85395 13.374 7.69523C13.2152 7.53651 13.0217 7.41696 12.8088 7.34605L12.7813 7.33691L12.7802 7.33348L12.1138 7.11632C12.0604 7.09694 12.0143 7.06159 11.9816 7.01507C11.949 6.96854 11.9315 6.91311 11.9315 6.85629C11.9315 6.79947 11.949 6.74403 11.9816 6.69751C12.0143 6.65098 12.0604 6.61563 12.1138 6.59626L12.8145 6.36766C13.0246 6.29527 13.2151 6.17527 13.3711 6.01704C13.5272 5.85882 13.6445 5.66665 13.714 5.45556L13.9414 4.75606C13.9606 4.70226 13.9959 4.6557 14.0426 4.62278C14.0892 4.58985 14.1449 4.57218 14.202 4.57218C14.2592 4.57218 14.3149 4.58985 14.3615 4.62278C14.4082 4.6557 14.4435 4.70226 14.4626 4.75606L14.6901 5.45556C14.7607 5.66837 14.8801 5.86175 15.0386 6.0203C15.1972 6.17885 15.3905 6.29818 15.6033 6.36881ZM7.42532 3.30676C7.43873 3.34856 7.45398 3.38975 7.47104 3.4302L7.35788 3.42906C6.24978 3.42923 5.16563 3.75153 4.23741 4.35675C3.30919 4.96196 2.57693 5.82397 2.12978 6.83784C1.68264 7.85172 1.53989 8.97372 1.71891 10.0673C1.89793 11.1608 2.39101 12.1787 3.13811 12.9971C3.88521 13.8154 4.85412 14.3989 5.92687 14.6766C6.99962 14.9542 8.12995 14.914 9.18026 14.5608C10.2306 14.2076 11.1555 13.5567 11.8426 12.6873C12.5296 11.8179 12.9491 10.7675 13.0499 9.66402C13.1701 9.84167 13.329 9.98973 13.5148 10.097C13.7005 10.2043 13.9081 10.2681 14.122 10.2835C13.8324 11.9763 12.9183 13.4989 11.5605 14.5505C10.2026 15.602 8.49969 16.106 6.78826 15.9628C5.07682 15.8196 3.48133 15.0397 2.31705 13.7772C1.15276 12.5147 0.504373 10.8614 0.5 9.14396C0.499881 8.23397 0.680872 7.33305 1.03242 6.4937C1.38398 5.65436 1.89906 4.89337 2.54767 4.25508C3.19627 3.6168 3.96542 3.11399 4.81029 2.77594C5.65517 2.43789 6.55887 2.27137 7.46875 2.28608C7.33409 2.61048 7.3187 2.9721 7.42532 3.30676ZM5.35767 8.85822C5.58502 8.85822 5.80306 8.7679 5.96382 8.60714C6.12459 8.44638 6.2149 8.22834 6.2149 8.00098C6.2149 7.77363 6.12459 7.55559 5.96382 7.39483C5.80306 7.23406 5.58502 7.14375 5.35767 7.14375C5.13031 7.14375 4.91227 7.23406 4.75151 7.39483C4.59075 7.55559 4.50043 7.77363 4.50043 8.00098C4.50043 8.22834 4.59075 8.44638 4.75151 8.60714C4.91227 8.7679 5.13031 8.85822 5.35767 8.85822ZM5.22737 11.0493C5.17753 10.9926 5.11696 10.9463 5.04914 10.9132C4.98132 10.88 4.9076 10.8606 4.83224 10.8561C4.75688 10.8516 4.68137 10.862 4.61008 10.8869C4.53878 10.9117 4.47312 10.9504 4.41687 11.0008C4.36062 11.0511 4.31491 11.1121 4.28238 11.1803C4.24984 11.2484 4.23113 11.3223 4.22731 11.3977C4.2235 11.4731 4.23466 11.5485 4.26015 11.6195C4.28565 11.6906 4.32497 11.7559 4.37585 11.8117C4.75086 12.2315 5.21041 12.5673 5.72434 12.7969C6.23827 13.0266 6.79496 13.145 7.35788 13.1444C7.9208 13.145 8.47749 13.0266 8.99143 12.7969C9.50536 12.5673 9.96491 12.2315 10.3399 11.8117C10.4394 11.6985 10.4901 11.5507 10.4811 11.4003C10.4721 11.2499 10.4041 11.1092 10.2918 11.0087C10.1796 10.9082 10.0322 10.8561 9.88175 10.8637C9.73129 10.8713 9.58992 10.938 9.4884 11.0493C9.22063 11.3494 8.89233 11.5895 8.52512 11.7536C8.1579 11.9177 7.7601 12.0021 7.35788 12.0014C6.51208 12.0014 5.75199 11.6345 5.22737 11.0493ZM10.2153 8.00098C10.2153 8.22834 10.125 8.44638 9.96425 8.60714C9.80349 8.7679 9.58545 8.85822 9.3581 8.85822C9.13074 8.85822 8.9127 8.7679 8.75194 8.60714C8.59118 8.44638 8.50086 8.22834 8.50086 8.00098C8.50086 7.77363 8.59118 7.55559 8.75194 7.39483C8.9127 7.23406 9.13074 7.14375 9.3581 7.14375C9.58545 7.14375 9.80349 7.23406 9.96425 7.39483C10.125 7.55559 10.2153 7.77363 10.2153 8.00098Z" fill="#FF0080"/>
</svg>
