<svg width="24" height="28" viewBox="0 0 24 28" fill="none" xmlns="http://www.w3.org/2000/svg">
<path d="M15.3333 6.66672C15.3333 5.54672 17.3333 3.33339 17.3333 3.33339C17.3333 3.33339 19.3333 5.54672 19.3333 6.66672C19.3333 7.77339 18.44 8.66672 17.3333 8.66672C16.2267 8.66672 15.3333 7.77339 15.3333 6.66672ZM20.6667 18.0001C21.5507 18.0001 22.3986 17.6489 23.0237 17.0237C23.6488 16.3986 24 15.5508 24 14.6667C24 12.4401 20.6667 8.66672 20.6667 8.66672C20.6667 8.66672 17.3333 12.4401 17.3333 14.6667C17.3333 15.5508 17.6845 16.3986 18.3096 17.0237C18.9348 17.6489 19.7826 18.0001 20.6667 18.0001ZM16 14.0001V24.6667C16 26.1334 14.8 27.3334 13.3333 27.3334H2.66667C1.2 27.3334 0 26.1334 0 24.6667V14.0001C0 10.0401 2.88 6.76006 6.66667 6.12006V3.33339H4V0.666725H12C13.5067 0.666725 14.8667 1.18673 16 2.00006L14.08 3.92006C13.4667 3.56006 12.76 3.33339 12 3.33339H9.33333V6.12006C13.12 6.76006 16 10.0401 16 14.0001ZM13.3333 14.0001C13.3333 11.0534 10.9467 8.66672 8 8.66672C5.05333 8.66672 2.66667 11.0534 2.66667 14.0001V24.6667H13.3333V14.0001Z" fill="#FF0080"/>
</svg>
