<svg width="25" height="26" viewBox="0 0 25 26" fill="none" xmlns="http://www.w3.org/2000/svg">
<g clip-path="url(#clip0_381_1677)">
<path d="M12.6914 13.3375L10.5664 7.81311C10.5345 7.73021 10.4783 7.65891 10.405 7.60863C10.3318 7.55834 10.2451 7.53143 10.1562 7.53143C10.0674 7.53143 9.98069 7.55834 9.90747 7.60863C9.83425 7.65891 9.77798 7.73021 9.74609 7.81311L7.62109 13.3375C7.59902 13.3949 7.56515 13.4471 7.52166 13.4905C7.47818 13.534 7.42605 13.5679 7.36865 13.59L1.84424 15.715C1.76134 15.7469 1.69004 15.8031 1.63976 15.8763C1.58947 15.9496 1.56255 16.0363 1.56255 16.1251C1.56255 16.2139 1.58947 16.3007 1.63976 16.3739C1.69004 16.4471 1.76134 16.5034 1.84424 16.5353L7.36865 18.6603C7.42605 18.6824 7.47818 18.7162 7.52166 18.7597C7.56515 18.8032 7.59902 18.8553 7.62109 18.9127L9.74609 24.4371C9.77798 24.52 9.83425 24.5913 9.90747 24.6416C9.98069 24.6919 10.0674 24.7188 10.1562 24.7188C10.2451 24.7188 10.3318 24.6919 10.405 24.6416C10.4783 24.5913 10.5345 24.52 10.5664 24.4371L12.6914 18.9127C12.7135 18.8553 12.7474 18.8032 12.7908 18.7597C12.8343 18.7162 12.8864 18.6824 12.9438 18.6603L18.4683 16.5353C18.5512 16.5034 18.6225 16.4471 18.6727 16.3739C18.723 16.3007 18.7499 16.2139 18.7499 16.1251C18.7499 16.0363 18.723 15.9496 18.6727 15.8763C18.6225 15.8031 18.5512 15.7469 18.4683 15.715L12.9438 13.59C12.8864 13.5679 12.8343 13.534 12.7908 13.4905C12.7474 13.4471 12.7135 13.3949 12.6914 13.3375ZM5.27344 3.82043L4.29688 1.28137L3.32031 3.82043L0.78125 4.797L3.32031 5.77356L4.29688 8.31262L5.27344 5.77356L7.8125 4.797L5.27344 3.82043ZM20.8335 6.22913L19.5312 2.84387L18.229 6.22913L14.8438 7.53137L18.229 8.83362L19.5312 12.2189L20.8335 8.83362L24.2188 7.53137L20.8335 6.22913Z" stroke="#FF0080" stroke-width="1.5625" stroke-linecap="round" stroke-linejoin="round"/>
</g>
<defs>
<clipPath id="clip0_381_1677">
<rect width="25" height="25" fill="white" transform="translate(0 0.500122)"/>
</clipPath>
</defs>
</svg>
